<?xml version="1.0" encoding="utf-8"?>
<!-- Generator: Adobe Illustrator 17.0.0, SVG Export Plug-In . SVG Version: 6.00 Build 0)  -->
<!DOCTYPE svg PUBLIC "-//W3C//DTD SVG 1.0//EN" "http://www.w3.org/TR/2001/REC-SVG-20010904/DTD/svg10.dtd">
<svg version="1.0" id="Gittip_Logo" xmlns="http://www.w3.org/2000/svg" xmlns:xlink="http://www.w3.org/1999/xlink" x="0px"
	 y="0px" width="442px" height="128px" viewBox="0 0 442 128" enable-background="new 0 0 442 128" xml:space="preserve">
<g id="Wordmark">
	<path d="M165.976,91.031c-15.058,0-26.807-12.054-26.807-27.034c0-14.833,11.895-27.029,26.807-27.029
		c8.429,0,15.053,3.387,20.178,9.335l-7.985,6.926c-2.938-3.462-7.379-5.95-12.275-5.95c-8.957,0-15.884,7.309-15.884,16.718
		c0,9.563,7.229,16.793,15.884,16.793c3.839,0,8.055-1.131,10.768-3.839v-6.556h-10.538v-9.107h20.555v19.879
		C181.634,87.186,175.006,91.031,165.976,91.031z"/>
	<path d="M206.268,90.346v-8.88h6.547V46.604h-6.547v-8.958h23.863v8.958h-6.547v34.862h6.547v8.88H206.268z"/>
	<path d="M257.22,90.346V47.584h-10.092v-9.937h31.026v9.937h-10.092v42.763H257.22z"/>
	<path d="M303.801,90.346V47.584h-10.097v-9.937h31.017v9.937h-10.082v42.763H303.801z"/>
	<path d="M341.765,90.346v-8.88h6.544V46.604h-6.544v-8.958h23.869v8.958h-6.552v34.862h6.552v8.88H341.765z"/>
	<path d="M387.192,90.346v-52.7h19.197c10.384,0,17.011,6.701,17.011,17.315s-6.628,17.243-17.011,17.243h-8.514v18.142H387.192z
		 M413.083,54.962c0-4.819-3.084-7.527-8.356-7.527h-6.852v14.98h6.852C409.924,62.415,413.083,59.782,413.083,54.962z"/>
</g>
<path id="Heart_Coin" fill="#614C3E" d="M63.998,16C37.49,16,16,37.489,16,63.998C16,90.509,37.49,112,63.998,112
	c26.514,0,48-21.491,48-48.002C111.998,37.489,90.513,16,63.998,16z M86.169,59.827L64.33,89.394L42.492,59.827
	c-1.848-2.173-3.692-9.738,2.65-13.919c5.402-3.561,10.533-0.864,13.222,2.261c1.003,1.166,2.722,2.539,5.966,2.539
	c3.245,0,4.964-1.373,5.967-2.539c2.688-3.125,7.819-5.822,13.222-2.261C89.861,50.089,88.016,57.653,86.169,59.827z"/>
<g>
</g>
</svg>
