<?xml version="1.0" encoding="utf-8"?>
<!-- Generator: Adobe Illustrator 17.0.0, SVG Export Plug-In . SVG Version: 6.00 Build 0)  -->
<!DOCTYPE svg PUBLIC "-//W3C//DTD SVG 1.0//EN" "http://www.w3.org/TR/2001/REC-SVG-20010904/DTD/svg10.dtd">
<svg version="1.0" id="Gittip_Logo" xmlns="http://www.w3.org/2000/svg" xmlns:xlink="http://www.w3.org/1999/xlink" x="0px"
	 y="0px" width="350px" height="128px" viewBox="0 0 350 128" enable-background="new 0 0 350 128" xml:space="preserve">
<path fill="#454545" d="M153.009,87.031c-12.83,0-22.84-10.27-22.84-23.033c0-12.638,10.134-23.029,22.84-23.029
	c7.182,0,12.826,2.886,17.192,7.954l-6.803,5.901c-2.503-2.95-6.287-5.069-10.458-5.069c-7.631,0-13.534,6.227-13.534,14.244
	c0,8.148,6.16,14.308,13.534,14.308c3.271,0,6.863-0.964,9.175-3.271v-5.586h-8.979v-7.759h17.514v16.938
	C166.351,83.755,160.703,87.031,153.009,87.031z"/>
<path fill="#454545" d="M177.818,86.448v-7.566h5.578V49.178h-5.578v-7.633h20.332v7.633h-5.578v29.703h5.578v7.566H177.818z"/>
<path fill="#454545" d="M213.71,86.448V50.013h-8.599v-8.467h26.435v8.467h-8.599v36.435H213.71z"/>
<path fill="#454545" d="M245.878,86.448V50.013h-8.603v-8.467h26.427v8.467h-8.59v36.435H245.878z"/>
<path fill="#454545" d="M268.704,86.448v-7.566h5.576V49.178h-5.576v-7.633h20.337v7.633h-5.582v29.703h5.582v7.566H268.704z"/>
<path fill="#454545" d="M295.889,86.448V41.546h16.357c8.847,0,14.493,5.709,14.493,14.753c0,9.044-5.648,14.692-14.493,14.692
	h-7.254v15.457H295.889z M317.949,56.299c0-4.105-2.627-6.413-7.119-6.413h-5.838v12.763h5.838
	C315.257,62.649,317.949,60.406,317.949,56.299z"/>
<path id="Heart_Coin" fill="#AB4926" d="M63.998,16C37.49,16,16,37.489,16,63.998C16,90.509,37.49,112,63.998,112
	c26.514,0,48-21.491,48-48.002C111.998,37.489,90.513,16,63.998,16z M86.169,59.827L64.33,89.394L42.492,59.827
	c-1.848-2.173-3.692-9.738,2.65-13.919c5.402-3.561,10.533-0.864,13.222,2.261c1.003,1.166,2.722,2.539,5.966,2.539
	c3.245,0,4.964-1.373,5.967-2.539c2.688-3.125,7.819-5.822,13.222-2.261C89.861,50.089,88.016,57.653,86.169,59.827z"/>
</svg>
